<svg xmlns="http://www.w3.org/2000/svg" xmlns:xlink="http://www.w3.org/1999/xlink" width="500" zoomAndPan="magnify" viewBox="0 0 375 374.999991" height="500" preserveAspectRatio="xMidYMid meet" version="1.0"><defs><g/></defs><g fill="#000000" fill-opacity="1"><g transform="translate(40.74156, 365.127749)"><g><path d="M 138.890625 -273.46875 L 138.890625 -77.234375 C 138.890625 -50.492188 131.539062 -30.109375 116.84375 -16.078125 C 102.144531 -2.046875 81.097656 4.96875 53.703125 4.96875 C 46.410156 4.96875 39.226562 4.082031 32.15625 2.3125 C 25.082031 0.550781 19.113281 -1.597656 14.25 -4.140625 C 9.394531 -6.679688 5.03125 -9.273438 1.15625 -11.921875 C -2.707031 -14.578125 -5.523438 -16.789062 -7.296875 -18.5625 L -10.28125 -21.21875 L 9.609375 -73.265625 C 22.648438 -60.878906 34.472656 -54.6875 45.078125 -54.6875 C 54.578125 -54.6875 62.203125 -57.835938 67.953125 -64.140625 C 73.703125 -70.441406 76.578125 -80.109375 76.578125 -93.140625 L 76.578125 -273.46875 Z M 138.890625 -273.46875 "/></g></g></g><g fill="#000000" fill-opacity="1"><g transform="translate(97.68229, 284.545063)"><g><path d="M 270.484375 0 L 184.09375 0 L 82.71875 -116.734375 L 82.71875 0 L 20.015625 0 L 20.015625 -275.15625 L 82.71875 -275.15625 L 82.71875 -162.75 L 177.09375 -275.15625 L 253.140625 -275.15625 L 142.40625 -144.75 Z M 270.484375 0 "/></g></g></g></svg>